%TF.GenerationSoftware,KiCad,Pcbnew,5.1.10*%
%TF.CreationDate,2021-10-19T20:26:59-04:00*%
%TF.ProjectId,sample_jig,73616d70-6c65-45f6-9a69-672e6b696361,rev?*%
%TF.SameCoordinates,Original*%
%TF.FileFunction,Copper,L1,Top*%
%TF.FilePolarity,Positive*%
%FSLAX46Y46*%
G04 Gerber Fmt 4.6, Leading zero omitted, Abs format (unit mm)*
G04 Created by KiCad (PCBNEW 5.1.10) date 2021-10-19 20:26:59*
%MOMM*%
%LPD*%
G01*
G04 APERTURE LIST*
%TA.AperFunction,ComponentPad*%
%ADD10C,2.500000*%
%TD*%
%TA.AperFunction,ComponentPad*%
%ADD11C,1.217000*%
%TD*%
%TA.AperFunction,ComponentPad*%
%ADD12C,1.070000*%
%TD*%
%TA.AperFunction,SMDPad,CuDef*%
%ADD13R,2.000000X4.000000*%
%TD*%
%TA.AperFunction,Conductor*%
%ADD14C,0.250000*%
%TD*%
G04 APERTURE END LIST*
D10*
%TO.P,J\u002A\u002A,MH2*%
%TO.N,N/C*%
X62770000Y-56610000D03*
%TO.P,J\u002A\u002A,MH1*%
X87280000Y-56610000D03*
D11*
%TO.P,J\u002A\u002A,25*%
X66150000Y-58640000D03*
%TO.P,J\u002A\u002A,24*%
X67420000Y-56100000D03*
%TO.P,J\u002A\u002A,23*%
X68690000Y-58640000D03*
%TO.P,J\u002A\u002A,22*%
X69960000Y-56100000D03*
%TO.P,J\u002A\u002A,21*%
X71230000Y-58640000D03*
%TO.P,J\u002A\u002A,20*%
X73770000Y-58640000D03*
%TO.P,J\u002A\u002A,19*%
X76310000Y-58640000D03*
%TO.P,J\u002A\u002A,18*%
X78850000Y-58640000D03*
%TO.P,J\u002A\u002A,17*%
X80120000Y-56100000D03*
%TO.P,J\u002A\u002A,16*%
X81390000Y-58640000D03*
%TO.P,J\u002A\u002A,15*%
X82660000Y-56100000D03*
%TO.P,J\u002A\u002A,14*%
X83930000Y-58640000D03*
D12*
%TO.P,J\u002A\u002A,13*%
X64880000Y-56100000D03*
D11*
%TO.P,J\u002A\u002A,12*%
X66150000Y-53560000D03*
%TO.P,J\u002A\u002A,11*%
X68690000Y-53560000D03*
%TO.P,J\u002A\u002A,10*%
X71230000Y-53560000D03*
%TO.P,J\u002A\u002A,9*%
X72500000Y-56100000D03*
%TO.P,J\u002A\u002A,8*%
X73770000Y-53560000D03*
%TO.P,J\u002A\u002A,7*%
X75040000Y-56100000D03*
%TO.P,J\u002A\u002A,6*%
X76310000Y-53560000D03*
%TO.P,J\u002A\u002A,5*%
X77580000Y-56100000D03*
%TO.P,J\u002A\u002A,4*%
X78850000Y-53560000D03*
%TO.P,J\u002A\u002A,3*%
X81390000Y-53560000D03*
%TO.P,J\u002A\u002A,2*%
X83930000Y-53560000D03*
D12*
%TO.P,J\u002A\u002A,1*%
X85200000Y-56100000D03*
%TD*%
D13*
%TO.P,REF\u002A\u002A,1*%
%TO.N,N/C*%
X93000000Y-64000000D03*
%TD*%
%TO.P,REF\u002A\u002A,2*%
%TO.N,N/C*%
X93000000Y-70000000D03*
%TD*%
%TO.P,REF\u002A\u002A,6*%
%TO.N,N/C*%
X93000000Y-77000000D03*
%TD*%
%TO.P,REF\u002A\u002A,5*%
%TO.N,N/C*%
X93000000Y-83000000D03*
%TD*%
%TO.P,REF\u002A\u002A,9*%
%TO.N,N/C*%
X93000000Y-96000000D03*
%TD*%
%TO.P,REF\u002A\u002A,10*%
%TO.N,N/C*%
X93000000Y-90000000D03*
%TD*%
%TO.P,REF\u002A\u002A,12*%
%TO.N,N/C*%
X79000000Y-96000000D03*
%TD*%
%TO.P,REF\u002A\u002A,11*%
%TO.N,N/C*%
X79000000Y-90000000D03*
%TD*%
%TO.P,7,7*%
%TO.N,N/C*%
X79000000Y-83000000D03*
%TD*%
%TO.P,REF\u002A\u002A,8*%
%TO.N,N/C*%
X79000000Y-77000000D03*
%TD*%
%TO.P,REF\u002A\u002A,4*%
%TO.N,N/C*%
X79095600Y-69596000D03*
%TD*%
%TO.P,REF\u002A\u002A,3*%
%TO.N,N/C*%
X79070200Y-64770000D03*
%TD*%
%TO.P,REF\u002A\u002A,13*%
%TO.N,N/C*%
X71000000Y-96000000D03*
%TD*%
%TO.P,REF\u002A\u002A,14*%
%TO.N,N/C*%
X71000000Y-90000000D03*
%TD*%
%TO.P,REF\u002A\u002A,15*%
%TO.N,N/C*%
X57000000Y-96000000D03*
%TD*%
%TO.P,REF\u002A\u002A,16*%
%TO.N,N/C*%
X57000000Y-90000000D03*
%TD*%
%TO.P,REF\u002A\u002A,17*%
%TO.N,N/C*%
X71000000Y-83000000D03*
%TD*%
%TO.P,REF\u002A\u002A,18*%
%TO.N,N/C*%
X71000000Y-77000000D03*
%TD*%
%TO.P,REF\u002A\u002A,19*%
%TO.N,N/C*%
X57000000Y-83000000D03*
%TD*%
%TO.P,REF\u002A\u002A,20*%
%TO.N,N/C*%
X57000000Y-77000000D03*
%TD*%
%TO.P,REF\u002A\u002A,21*%
%TO.N,N/C*%
X70739000Y-69596000D03*
%TD*%
%TO.P,REF\u002A\u002A,22*%
%TO.N,N/C*%
X70739000Y-64770000D03*
%TD*%
%TO.P,REF\u002A\u002A,24*%
%TO.N,N/C*%
X57277000Y-64135000D03*
%TD*%
%TO.P,REF\u002A\u002A,23*%
%TO.N,N/C*%
X57277000Y-69596000D03*
%TD*%
D14*
%TO.N,*%
X73025000Y-74975000D02*
X71000000Y-77000000D01*
X69960000Y-56100000D02*
X69960000Y-59160000D01*
X69960000Y-59160000D02*
X73025000Y-62225000D01*
X73025000Y-62225000D02*
X73025000Y-74975000D01*
X75311000Y-92311000D02*
X79000000Y-96000000D01*
X76310000Y-59590000D02*
X75311000Y-60589000D01*
X75311000Y-60589000D02*
X75311000Y-92311000D01*
X76310000Y-58640000D02*
X76310000Y-59590000D01*
X96139000Y-79861000D02*
X93000000Y-83000000D01*
X96139000Y-58928000D02*
X96139000Y-79861000D01*
X89154000Y-51943000D02*
X96139000Y-58928000D01*
X82057000Y-51943000D02*
X89154000Y-51943000D01*
X81390000Y-52610000D02*
X82057000Y-51943000D01*
X81390000Y-53560000D02*
X81390000Y-52610000D01*
X74676000Y-92324000D02*
X71000000Y-96000000D01*
X75040000Y-56100000D02*
X75040000Y-59960000D01*
X75040000Y-59960000D02*
X74676000Y-60324000D01*
X74676000Y-60324000D02*
X74676000Y-92324000D01*
X73533000Y-61722000D02*
X73533000Y-80467000D01*
X72500000Y-56100000D02*
X72500000Y-60689000D01*
X73533000Y-80467000D02*
X71000000Y-83000000D01*
X72500000Y-60689000D02*
X73533000Y-61722000D01*
X52832000Y-58420000D02*
X52832000Y-91832000D01*
X52832000Y-91832000D02*
X57000000Y-96000000D01*
X60325000Y-50927000D02*
X52832000Y-58420000D01*
X71427000Y-50927000D02*
X60325000Y-50927000D01*
X73770000Y-53270000D02*
X71427000Y-50927000D01*
X73770000Y-53560000D02*
X73770000Y-53270000D01*
X53467000Y-86467000D02*
X57000000Y-90000000D01*
X53467000Y-58801000D02*
X53467000Y-86467000D01*
X60833000Y-51435000D02*
X53467000Y-58801000D01*
X70935000Y-51435000D02*
X60833000Y-51435000D01*
X72400000Y-52900000D02*
X70935000Y-51435000D01*
X72400000Y-54250000D02*
X72400000Y-52900000D01*
X71230000Y-55420000D02*
X72400000Y-54250000D01*
X71230000Y-58640000D02*
X71230000Y-55420000D01*
X61705000Y-54500000D02*
X57000000Y-59205000D01*
X64977500Y-54500000D02*
X61705000Y-54500000D01*
X66150000Y-55672500D02*
X64977500Y-54500000D01*
X66150000Y-58640000D02*
X66150000Y-55672500D01*
X57000000Y-63858000D02*
X57277000Y-64135000D01*
X57000000Y-59205000D02*
X57000000Y-63858000D01*
X71000000Y-63500000D02*
X71000000Y-64000000D01*
X54737000Y-59563000D02*
X54737000Y-74737000D01*
X61800000Y-52500000D02*
X54737000Y-59563000D01*
X54737000Y-74737000D02*
X57000000Y-77000000D01*
X69900000Y-53100000D02*
X69300000Y-52500000D01*
X69900000Y-54500000D02*
X69900000Y-53100000D01*
X68961000Y-55439000D02*
X69900000Y-54500000D01*
X68961000Y-58369000D02*
X68961000Y-55439000D01*
X69300000Y-52500000D02*
X61800000Y-52500000D01*
X68690000Y-58640000D02*
X68961000Y-58369000D01*
X95504000Y-74496000D02*
X93000000Y-77000000D01*
X95504000Y-59304000D02*
X95504000Y-74496000D01*
X88651000Y-52451000D02*
X95504000Y-59304000D01*
X83049000Y-52451000D02*
X88651000Y-52451000D01*
X82700000Y-54460000D02*
X82700000Y-52800000D01*
X82700000Y-52800000D02*
X83049000Y-52451000D01*
X81390000Y-55770000D02*
X82700000Y-54460000D01*
X81390000Y-58640000D02*
X81390000Y-55770000D01*
X56134000Y-69596000D02*
X57277000Y-69596000D01*
X55372000Y-68834000D02*
X56134000Y-69596000D01*
X55372000Y-59928000D02*
X55372000Y-68834000D01*
X61740000Y-53560000D02*
X55372000Y-59928000D01*
X66150000Y-53560000D02*
X61740000Y-53560000D01*
X79000000Y-69932200D02*
X79000000Y-70000000D01*
X70739000Y-63271400D02*
X70739000Y-64770000D01*
X67157600Y-59690000D02*
X70739000Y-63271400D01*
X67157600Y-56362400D02*
X67157600Y-59690000D01*
X67420000Y-56100000D02*
X67157600Y-56362400D01*
X54102000Y-80102000D02*
X57000000Y-83000000D01*
X54102000Y-59182000D02*
X54102000Y-80102000D01*
X61341000Y-51943000D02*
X54102000Y-59182000D01*
X69697600Y-51943000D02*
X61341000Y-51943000D01*
X71230000Y-53475400D02*
X69697600Y-51943000D01*
X71230000Y-53560000D02*
X71230000Y-53475400D01*
X97409000Y-91591000D02*
X93000000Y-96000000D01*
X77580000Y-56100000D02*
X77580000Y-52520000D01*
X77580000Y-52520000D02*
X79173000Y-50927000D01*
X79173000Y-50927000D02*
X90106500Y-50927000D01*
X90106500Y-50927000D02*
X97409000Y-58229500D01*
X97409000Y-58229500D02*
X97409000Y-91591000D01*
X75819000Y-60984000D02*
X75819000Y-86819000D01*
X77317600Y-59485400D02*
X75819000Y-60984000D01*
X75819000Y-86819000D02*
X79000000Y-90000000D01*
X77317600Y-58039000D02*
X77317600Y-59485400D01*
X76310000Y-57031400D02*
X77317600Y-58039000D01*
X76310000Y-53560000D02*
X76310000Y-57031400D01*
X76327000Y-61468000D02*
X76327000Y-80327000D01*
X77825600Y-59969400D02*
X76327000Y-61468000D01*
X76327000Y-80327000D02*
X79000000Y-83000000D01*
X77825600Y-57988200D02*
X77825600Y-59969400D01*
X78587600Y-57226200D02*
X77825600Y-57988200D01*
X78587600Y-53822400D02*
X78587600Y-57226200D01*
X78850000Y-53560000D02*
X78587600Y-53822400D01*
X94742000Y-68258000D02*
X93000000Y-70000000D01*
X94742000Y-59642000D02*
X94742000Y-68258000D01*
X89000000Y-53900000D02*
X94742000Y-59642000D01*
X84226400Y-55373600D02*
X85700000Y-53900000D01*
X84226400Y-58343600D02*
X84226400Y-55373600D01*
X85700000Y-53900000D02*
X89000000Y-53900000D01*
X83930000Y-58640000D02*
X84226400Y-58343600D01*
X88400000Y-54500000D02*
X93000000Y-59100000D01*
X86089000Y-54500000D02*
X88400000Y-54500000D01*
X93000000Y-59100000D02*
X93000000Y-64000000D01*
X85200000Y-55389000D02*
X86089000Y-54500000D01*
X85200000Y-56100000D02*
X85200000Y-55389000D01*
X72517000Y-67818000D02*
X70739000Y-69596000D01*
X72517000Y-62611000D02*
X72517000Y-67818000D01*
X68275200Y-59944000D02*
X69850000Y-59944000D01*
X69850000Y-59944000D02*
X72517000Y-62611000D01*
X67665600Y-59334400D02*
X68275200Y-59944000D01*
X67665600Y-57683400D02*
X67665600Y-59334400D01*
X68453000Y-56896000D02*
X67665600Y-57683400D01*
X68453000Y-53797000D02*
X68453000Y-56896000D01*
X68690000Y-53560000D02*
X68453000Y-53797000D01*
X74041000Y-86959000D02*
X71000000Y-90000000D01*
X74041000Y-60325000D02*
X74041000Y-86959000D01*
X73770000Y-60054000D02*
X74041000Y-60325000D01*
X73770000Y-58640000D02*
X73770000Y-60054000D01*
X76835000Y-74835000D02*
X79000000Y-77000000D01*
X76835000Y-62357000D02*
X76835000Y-74835000D01*
X80137000Y-59055000D02*
X76835000Y-62357000D01*
X80137000Y-56117000D02*
X80137000Y-59055000D01*
X80120000Y-56100000D02*
X80137000Y-56117000D01*
X96774000Y-86226000D02*
X93000000Y-90000000D01*
X96774000Y-58547000D02*
X96774000Y-86226000D01*
X81000600Y-51435000D02*
X89662000Y-51435000D01*
X80187800Y-52247800D02*
X81000600Y-51435000D01*
X80187800Y-53949600D02*
X80187800Y-52247800D01*
X89662000Y-51435000D02*
X96774000Y-58547000D01*
X79095600Y-55041800D02*
X80187800Y-53949600D01*
X79095600Y-58394400D02*
X79095600Y-55041800D01*
X78850000Y-58640000D02*
X79095600Y-58394400D01*
X79019400Y-63550800D02*
X79019400Y-64744600D01*
X82905600Y-59664600D02*
X79019400Y-63550800D01*
X82905600Y-57937400D02*
X82905600Y-59664600D01*
X83693000Y-57150000D02*
X82905600Y-57937400D01*
X83693000Y-53797000D02*
X83693000Y-57150000D01*
X83930000Y-53560000D02*
X83693000Y-53797000D01*
X77400000Y-68433800D02*
X78536800Y-69570600D01*
X77400000Y-62706400D02*
X77400000Y-68433800D01*
X78308200Y-61798200D02*
X77400000Y-62706400D01*
X79883000Y-61798200D02*
X78308200Y-61798200D01*
X82397600Y-59283600D02*
X79883000Y-61798200D01*
X78536800Y-69570600D02*
X78994000Y-69570600D01*
X82397600Y-56362400D02*
X82397600Y-59283600D01*
X82660000Y-56100000D02*
X82397600Y-56362400D01*
%TD*%
M02*
