M48
; DRILL file {KiCad 5.1.10} date Tue Oct 19 20:27:12 2021
; FORMAT={-:-/ absolute / inch / decimal}
; #@! TF.CreationDate,2021-10-19T20:27:12-04:00
; #@! TF.GenerationSoftware,Kicad,Pcbnew,5.1.10
; #@! TF.FileFunction,Plated,1,2,PTH
FMAT,2
INCH
T1C0.0280
T2C0.0961
%
G90
G05
T1
X2.5543Y-2.2087
X2.6043Y-2.1087
X2.6043Y-2.3087
X2.6543Y-2.2087
X2.7043Y-2.1087
X2.7043Y-2.3087
X2.7543Y-2.2087
X2.8043Y-2.1087
X2.8043Y-2.3087
X2.8543Y-2.2087
X2.9043Y-2.1087
X2.9043Y-2.3087
X2.9543Y-2.2087
X3.0043Y-2.1087
X3.0043Y-2.3087
X3.0543Y-2.2087
X3.1043Y-2.1087
X3.1043Y-2.3087
X3.1543Y-2.2087
X3.2043Y-2.1087
X3.2043Y-2.3087
X3.2543Y-2.2087
X3.3043Y-2.1087
X3.3043Y-2.3087
X3.3543Y-2.2087
T2
X2.4713Y-2.2287
X3.4362Y-2.2287
T0
M30
